<svg width="1200" height="1200" viewBox="0 0 1200 1200" fill="none" xmlns="http://www.w3.org/2000/svg">
<path d="M125.443 220.26C174.149 227.665 429.438 265.203 600.398 265.321C772.429 265.44 1029.27 227.786 1078.69 220.289C1081.5 219.863 1083.38 222.997 1081.44 225.072C1036.15 273.506 730.389 595.416 600.398 599.496C470.226 603.581 166.838 273.822 122.66 225.007C120.77 222.918 122.658 219.837 125.443 220.26Z" stroke="#A01F1F" stroke-width="65" stroke-linecap="square"/>
<path d="M1117.8 302.828C1117.8 302.828 1078.81 496.879 1078.81 612.739C1078.81 750.459 1112.3 948.376 1117.2 976.601C1117.52 978.441 1116.08 980 1114.21 980H86.5442C84.6894 980 83.2561 978.461 83.5547 976.631C88.141 948.513 119.619 750.507 119.619 612.739C119.619 496.879 83 302.828 83 302.828" stroke="white" stroke-width="65" stroke-linecap="round"/>
<path d="M84.1822 301.709C84.1822 301.709 458.303 770.578 632.295 718.6C873.267 646.611 1117.8 301.709 1117.8 301.709" stroke="white" stroke-width="65" stroke-linecap="round"/>
</svg>
